<?xml version="1.0" encoding="UTF-8" standalone="no"?>
<!-- Created with Inkscape (http://www.inkscape.org/) -->

<svg
   width="128"
   height="128"
   viewBox="0 0 33.866666 33.866666"
   version="1.1"
   id="svg5"
   inkscape:version="1.2.1 (9c6d41e410, 2022-07-14)"
   sodipodi:docname="logo.svg"
   xmlns:inkscape="http://www.inkscape.org/namespaces/inkscape"
   xmlns:sodipodi="http://sodipodi.sourceforge.net/DTD/sodipodi-0.dtd"
   xmlns="http://www.w3.org/2000/svg"
   xmlns:svg="http://www.w3.org/2000/svg">
  <sodipodi:namedview
     id="namedview7"
     pagecolor="#ffffff"
     bordercolor="#000000"
     borderopacity="0.25"
     inkscape:showpageshadow="2"
     inkscape:pageopacity="0.0"
     inkscape:pagecheckerboard="0"
     inkscape:deskcolor="#d1d1d1"
     inkscape:document-units="mm"
     showgrid="false"
     inkscape:zoom="3.3638608"
     inkscape:cx="59.306853"
     inkscape:cy="63.914654"
     inkscape:window-width="1680"
     inkscape:window-height="979"
     inkscape:window-x="-8"
     inkscape:window-y="-8"
     inkscape:window-maximized="1"
     inkscape:current-layer="layer1" />
  <defs
     id="defs2" />
  <g
     inkscape:label="Layer 1"
     inkscape:groupmode="layer"
     id="layer1">
    <circle
       style="display:none;fill:none;stroke:#0000ff;stroke-width:0.264583"
       id="path164"
       cx="16.950079"
       cy="12.663401"
       r="7.3932738" />
    <circle
       style="display:none;fill:none;stroke:#ff0000;stroke-width:0.264583"
       id="path164-9"
       cx="20.607519"
       cy="19.03443"
       r="7.2359638" />
    <circle
       style="display:none;fill:none;stroke:#00ff00;stroke-width:0.264583"
       id="path164-9-8"
       cx="13.292637"
       cy="19.113081"
       r="7.3146186" />
    <path
       style="display:none;fill:none;stroke:#000000;stroke-width:0.264583"
       d="M 16.933333,16.933333 V 12.7 Z"
       id="path2028"
       sodipodi:nodetypes="ccc" />
    <path
       style="display:none;fill:none;stroke:#000000;stroke-width:0.264583"
       d="M 20.611042,19.05 16.933333,16.933333"
       id="path2030"
       sodipodi:nodetypes="cc" />
    <path
       style="display:none;fill:none;stroke:#000000;stroke-width:0.264583"
       d="m 13.255625,19.05 3.677708,-2.116667"
       id="path2032"
       sodipodi:nodetypes="cc" />
    <path
       style="fill:#0000ff;stroke:none;stroke-width:0.297277"
       d="m 61.536434,46.35792 c -7.691257,-3.426203 -15.464158,-3.214721 -24.302432,0.661208 -0.952372,0.417653 -0.02505,-5.395367 1.454265,-9.116252 3.352125,-8.431501 11.135231,-14.980099 19.937179,-16.774869 2.938785,-0.599236 7.945965,-0.598085 10.875693,0.0025 11.513848,2.360298 20.582555,12.367785 21.653946,23.895534 0.169552,1.82432 0.13343,2.163016 -0.215169,2.017489 -3.382096,-1.411892 -4.561313,-1.82351 -6.754875,-2.357858 -3.812171,-0.928637 -9.311777,-0.872963 -13.139141,0.133013 -1.55515,0.408753 -3.747497,1.16031 -4.871878,1.670129 -1.124379,0.509818 -2.126155,0.9124 -2.226167,0.894627 -0.100012,-0.01777 -1.185151,-0.479256 -2.411421,-1.025518 z"
       id="path2307"
       transform="scale(0.26458333)" />
    <path
       style="fill:#ff00ff;stroke:none;stroke-width:0.297277"
       d="m 78.477344,70.099968 c -0.0071,-1.513384 -1.095489,-6.156933 -1.934962,-8.255286 -1.818883,-4.546492 -4.847977,-8.677951 -8.465844,-11.546783 -1.226269,-0.972385 -2.267307,-1.864291 -2.313417,-1.982012 -0.04611,-0.117721 0.957202,-0.625256 2.229581,-1.127856 6.777538,-2.677182 14.92157,-2.438056 21.190536,0.6222 l 1.932303,0.943272 -0.0673,2.036428 c -0.122734,3.713731 -1.767317,8.301273 -4.387725,12.239504 -1.61992,2.434589 -5.461261,6.34037 -7.246252,7.36781 l -0.933014,0.537043 z"
       id="path2378"
       transform="scale(0.26458333)" />
    <path
       style="fill:#ff0000;stroke:none"
       d="M 73.72481,98.341581 C 72.154886,98.077675 68.758355,97.071555 67.399606,96.467927 L 65.97948,95.83703 68.003313,94.253489 c 5.755027,-4.502998 9.795528,-12.096014 10.380102,-19.50656 l 0.177326,-2.247933 1.798168,-1.16429 c 3.906628,-2.529489 8.003785,-7.55509 10.017751,-12.287842 1.025634,-2.410203 2.071511,-6.513004 2.074547,-8.138099 0.0011,-0.613135 0.111035,-1.114791 0.244199,-1.114791 0.578736,0 4.62434,3.751339 6.154186,5.706545 2.057128,2.629099 4.057048,6.692853 4.945568,10.049161 0.94684,3.576618 0.94684,9.206313 0,12.782931 -2.66823,10.079055 -10.622138,17.69577 -20.619258,19.745145 -2.114396,0.433442 -7.540921,0.584923 -9.451092,0.263825 z"
       id="path2380"
       transform="scale(0.26458333)" />
    <path
       style="fill:#00ff00;stroke:none"
       d="m 44.888896,98.698355 c -5.68939,-1.272838 -10.345259,-3.902177 -14.285006,-8.067263 -2.124461,-2.245976 -3.295856,-3.976898 -4.750089,-7.019009 -1.905349,-3.985804 -2.452184,-6.522117 -2.452184,-11.37366 0,-4.851543 0.546835,-7.387857 2.452184,-11.37366 1.991259,-4.165519 4.526191,-7.317241 8.110149,-10.083477 l 1.709345,-1.319339 v 1.317005 c 0,2.117289 1.347929,6.835559 2.799228,9.798375 2.20389,4.499223 6.303584,9.054961 10.3124,11.459534 1.021729,0.612854 1.080682,0.737533 1.259747,2.664203 0.400828,4.312752 2.283755,9.550198 4.69159,13.049867 1.420115,2.064066 4.816106,5.532402 6.661381,6.803293 0.893851,0.615617 1.62518,1.218359 1.62518,1.339428 0,0.294415 -3.866658,1.884139 -6.094187,2.505541 -2.504191,0.698578 -9.479662,0.871906 -12.039738,0.299162 z"
       id="path2451"
       transform="scale(0.26458333)" />
    <path
       style="fill:#00ffff;stroke:none;stroke-width:0.297277"
       d="M 47.861671,69.752559 C 43.927436,66.8489 40.510932,62.404962 38.688267,57.820466 c -0.97562,-2.453947 -1.825862,-6.167244 -1.825862,-7.974157 0,-1.152306 0.01718,-1.169522 2.092979,-2.097687 4.141858,-1.851974 6.193818,-2.263581 11.284507,-2.263581 4.959315,0 7.100119,0.40809 10.857193,2.069646 l 1.697084,0.750531 -1.743657,1.295088 c -2.043805,1.518021 -4.944001,4.51087 -6.30654,6.508018 -2.401022,3.519307 -4.212233,8.53098 -4.724699,13.073376 l -0.225298,1.996994 z"
       id="path2522"
       transform="scale(0.26458333)" />
    <path
       style="fill:#ffff00;stroke:none;stroke-width:0.297277"
       d="m 62.764136,93.910392 c -5.090162,-3.427916 -9.532509,-9.943827 -10.857799,-15.925921 -0.477981,-2.157509 -0.778575,-4.4083 -0.58873,-4.4083 0.07112,0 0.932354,0.337997 1.913855,0.751105 6.639422,2.794494 15.220621,2.739891 21.988059,-0.139912 l 2.074808,-0.88291 -0.19038,1.696565 c -0.648783,5.781608 -3.251818,11.4137 -7.228058,15.639088 -1.514116,1.60899 -4.86751,4.340041 -5.329034,4.340041 -0.106823,0 -0.909047,-0.48139 -1.782721,-1.069756 z"
       id="path2593"
       transform="scale(0.26458333)" />
    <path
       style="fill:#ffffff;stroke:none;stroke-width:0.297277"
       d="m 59.901408,74.869425 c -1.898595,-0.303621 -4.5388,-1.086104 -6.638384,-1.967432 l -2.191078,-0.919735 0.210292,-2.250137 c 0.643659,-6.887198 4.077832,-13.576165 9.22484,-17.967833 3.243582,-2.767576 3.429074,-2.834787 4.949275,-1.793317 2.002874,1.372144 5.247368,4.553834 6.654347,6.525539 2.778882,3.894253 4.740016,9.211906 4.937085,13.386999 l 0.09572,2.027819 -2.080942,0.873273 c -3.974452,1.667889 -5.654341,2.021567 -10.107434,2.127986 -2.289037,0.0547 -4.563209,0.03528 -5.053717,-0.04316 z"
       id="path2818"
       transform="scale(0.26458333)" />
  </g>
</svg>
